<svg width="556" height="175" xmlns="http://www.w3.org/2000/svg">
 <!-- Created with Method Draw - http://github.com/duopixel/Method-Draw/ -->

 <g>
  <title>background</title>
  <rect fill="none" id="canvas_background" height="177" width="558" y="-1" x="-1"/>
  <g display="none" overflow="visible" y="0" x="0" height="100%" width="100%" id="canvasGrid">
   <rect fill="url(#gridpattern)" stroke-width="0" y="0" x="0" height="100%" width="100%"/>
  </g>
 </g>
 <g>
  <title>Layer 1</title>
  <g stroke="null" id="svg_59">
   <g stroke="null" transform="matrix(0.39137125883568363,0,0,0.4177981250335287,-16089.735650835151,-12105.77299382862) " id="svg_58">
    <title stroke="null" transform="translate(7.275957614183426e-12,-2.393500566482544) translate(7.275957614183426e-12,-2.393500566482544) translate(7.275957614183426e-12,-2.393500566482544) translate(7.275957614183426e-12,-2.393500566482544) translate(7.275957614183426e-12,-2.393500566482544) translate(7.275957614183426e-12,-2.393500566482544) translate(2.5551185607910156,0) translate(2.5551185607910156,0) translate(2.5551185607910156,0) translate(2.5551185607910156,0) translate(2.5551185607910156,0) translate(2.5551185607910156,0) translate(2.5551185607910156,0) translate(2.5551185607910156,0) translate(2.5551185607910156,0) translate(2.5551185607910156,0) translate(2.5551185607910156,0) translate(2.5551185607910156,0) translate(2.5551185607910156,0) translate(2.5551185607910156,0) translate(2.5551185607910156,0) translate(2.5551185607910156,0) translate(2.5551185607910156,0) translate(2.5551185607910156,0) translate(2.5551185607910156,0) translate(2.5551185607910156,0) translate(2.5551185607910156,0) translate(7.275957614183426e-12,-2.393500566482544) translate(-2.5551185607910156,0) translate(-2.5551185607910156,0) translate(-2.5551185607910156,0) translate(-2.5551185607910156,0) translate(-2.5551185607910156,0) translate(-2.5551185607910156,0) translate(-2.5551185607910156,0) translate(-2.5551185607910156,0) translate(-2.5551185607910156,0) translate(-2.5551185607910156,0) translate(-2.5551185607910156,0) translate(-2.5551185607910156,0) translate(-2.5551185607910156,0) translate(-2.5551185607910156,0) translate(-2.5551185607910156,0) translate(-2.5551185607910156,0) translate(-2.5551185607910156,0) translate(-2.5551185607910156,0) translate(-2.5551185607910156,0) translate(-2.5551185607910156,0) translate(-2.5551185607910156,0) translate(-2.5551185607910156,0) translate(-2.5551185607910156,0) translate(-2.5551185607910156,0) translate(-2.5551185607910156,0) translate(-2.5551185607910156,0) translate(-2.5551185607910156,0) translate(-2.5551185607910156,0) translate(-2.5551185607910156,0) translate(-2.5551185607910156,0) translate(-2.5551185607910156,0) translate(-2.5551185607910156,0) translate(-2.5551185607910156,0) translate(-2.5551185607910156,0) translate(-2.5551185607910156,0) translate(-2.5551185607910156,0) translate(-2.5551185607910156,0) translate(-2.5551185607910156,0) translate(-2.5551185607910156,0) translate(7.275957614183426e-12,-2.393500566482544) translate(7.275957614183426e-12,-2.393500566482544) translate(-0.2146248072385788,0.00029338960302993655) translate(-0.383920818567276,0.00038336802390404046) translate(-0.000058505916967988014,-0.019164161756634712) translate(-0.0003041883173864335,-0.09414011240005493) translate(-0.00013919142656959593,-0.03835583105683327) translate(-0.09444723278284073,0.048765167593955994) translate(-0.23463386297225952,0.07086712121963501) translate(0.12620313465595245,-0.04480353742837906) translate(-0.28021034598350525,0.14285089075565338) translate(-0.5538948178291321,-0.18905550241470337) translate(0.5786087512969971,-0.446323424577713) translate(-0.19558630883693695,0.000287456379737705) translate(106.8031005859375,410.0520935058594) translate(40898.8515625,0) translate(0,28297.7109375) ">Layer 1</title>
    <text stroke="#000000" transform="matrix(50.702,0,0,5.20425,-1958.29,-1290.46) " xml:space="preserve" text-anchor="middle" font-family="Arial" font-size="24" id="svg_56" y="5840.780107" x="854.125503" stroke-width="0" fill="#000000"/>
    <g stroke="null" id="svg_43" transform="matrix(0.96006,0,0,0.826464,-298.088,-150.544) ">
     <rect stroke="#000000" id="svg_55" fill="#000000" fill-rule="evenodd" stroke-width="0.96589556pt" y="35275.695021" x="43947.302157" width="51.717539" height="255.70679"/>
     <rect stroke="#000000" id="svg_54" fill="#000000" fill-rule="evenodd" stroke-width="0.96589556pt" y="35275.568461" x="44049.690133" width="51.717541" height="255.70679"/>
     <rect stroke="#000000" id="svg_53" fill="#000000" fill-rule="evenodd" stroke-width="0.96589556pt" y="35275.059501" x="44254.802523" width="51.717541" height="255.70679"/>
     <rect stroke="#000000" id="svg_52" fill="#000000" fill-rule="evenodd" stroke-width="0.96589556pt" y="35276.077431" x="44356.595273" width="51.717541" height="255.70679"/>
     <rect stroke="#000000" id="svg_51" fill="#000000" fill-rule="evenodd" stroke-width="0.96589556pt" y="35275.568471" x="44460.423883" width="51.717541" height="255.70679"/>
     <rect stroke="#000000" id="svg_50" fill="none" fill-opacity="0.75" fill-rule="evenodd" stroke-width="2.375" y="35274.263701" x="43870.144567" width="718.34387" height="449.14487"/>
     <path stroke="#000000" id="svg_49" fill="none" fill-opacity="0.75" fill-rule="evenodd" stroke-width="2.375" d="m43972.353655,35521.189493l0,202.17913"/>
     <path stroke="#000000" id="svg_48" fill="none" fill-opacity="0.75" fill-rule="evenodd" stroke-width="2.375" d="m44076.002705,35520.213903l0,202.17902"/>
     <path stroke="#000000" id="svg_47" fill="none" fill-opacity="0.75" fill-rule="evenodd" stroke-width="2.375" d="m44280.800435,35521.549413l0,202.17908"/>
     <path stroke="#000000" id="svg_46" fill="none" fill-opacity="0.75" fill-rule="evenodd" stroke-width="2.375" d="m44382.630505,35521.549413l0,202.17908"/>
     <path stroke="#000000" id="svg_45" fill="none" fill-opacity="0.75" fill-rule="evenodd" stroke-width="2.375" d="m44486.999165,35520.829623l0,202.17902"/>
     <path stroke="#000000" id="svg_44" fill="none" fill-opacity="0.75" fill-rule="evenodd" stroke-width="2.375" d="m44178.276755,35274.728363l0,448.21558"/>
    </g>
    <g stroke="null" id="svg_30" transform="matrix(0.96006,0,0,0.826464,-298.088,-150.544) ">
     <rect stroke="#000000" id="svg_42" fill="#000000" fill-rule="evenodd" stroke-width="0.96589556pt" y="35275.316328" x="43228.285204" width="51.717539" height="255.70679"/>
     <rect stroke="#000000" id="svg_41" fill="#000000" fill-rule="evenodd" stroke-width="0.96589556pt" y="35275.189768" x="43330.67318" width="51.717541" height="255.70679"/>
     <rect stroke="#000000" id="svg_40" fill="#000000" fill-rule="evenodd" stroke-width="0.96589556pt" y="35274.680808" x="43535.78557" width="51.717541" height="255.70679"/>
     <rect stroke="#000000" id="svg_39" fill="#000000" fill-rule="evenodd" stroke-width="0.96589556pt" y="35275.698738" x="43637.57832" width="51.717541" height="255.70679"/>
     <rect stroke="#000000" id="svg_38" fill="#000000" fill-rule="evenodd" stroke-width="0.96589556pt" y="35275.189778" x="43741.40693" width="51.717541" height="255.70679"/>
     <rect stroke="#000000" id="svg_37" fill="none" fill-opacity="0.75" fill-rule="evenodd" stroke-width="2.375" y="35273.885008" x="43151.127614" width="718.34387" height="449.14487"/>
     <path stroke="#000000" id="svg_36" fill="none" fill-opacity="0.75" fill-rule="evenodd" stroke-width="2.375" d="m43253.336805,35520.810823l0,202.1792"/>
     <path stroke="#000000" id="svg_35" fill="none" fill-opacity="0.75" fill-rule="evenodd" stroke-width="2.375" d="m43356.985795,35519.835243l0,202.17908"/>
     <path stroke="#000000" id="svg_34" fill="none" fill-opacity="0.75" fill-rule="evenodd" stroke-width="2.375" d="m43561.783465,35521.170813l0,202.17908"/>
     <path stroke="#000000" id="svg_33" fill="none" fill-opacity="0.75" fill-rule="evenodd" stroke-width="2.375" d="m43663.613605,35521.170813l0,202.17908"/>
     <path stroke="#000000" id="svg_32" fill="none" fill-opacity="0.75" fill-rule="evenodd" stroke-width="2.375" d="m43767.982315,35520.450963l0,202.17908"/>
     <path stroke="#000000" id="svg_31" fill="none" fill-opacity="0.75" fill-rule="evenodd" stroke-width="2.375" d="m43459.259845,35274.349703l0,448.21564"/>
    </g>
   </g>
  </g>
  <text transform="matrix(2.0496026683858704,0,0,2.2897090414549175,-147.72949996826023,-192.20230812501472) " font-weight="bold" stroke="#000" xml:space="preserve" text-anchor="start" font-family="Helvetica, Arial, sans-serif" font-size="24" id="svg_60" y="150.5" x="115.5" stroke-width="0" fill="#1c8760">b</text>
  <text transform="matrix(2.0496026683858704,0,0,2.2897090414549175,-90.72949996826019,-184.20230812501475) " font-weight="bold" stroke="#000" xml:space="preserve" text-anchor="start" font-family="Helvetica, Arial, sans-serif" font-size="24" id="svg_61" y="147.006106" x="110.133106" stroke-width="0" fill="#1c8760">l</text>
  <text transform="matrix(2.0496026683858704,0,0,2.2897090414549175,-52.7294999682602,-172.20230812501475) " font-weight="bold" stroke="#000" xml:space="preserve" text-anchor="start" font-family="Helvetica, Arial, sans-serif" font-size="24" id="svg_62" y="141.328529" x="106.71781" stroke-width="0" fill="#1c8760">u</text>
  <text transform="matrix(2.0496026683858704,0,0,2.2897090414549175,-14.7294999682602,-184.20230812501475) " font-weight="bold" stroke="#000" xml:space="preserve" text-anchor="start" font-family="Helvetica, Arial, sans-serif" font-size="24" id="svg_63" y="147.006106" x="107.693609" stroke-width="0" fill="#1c8760">e</text>
  <text transform="matrix(2.0496026683858704,0,0,2.2897090414549175,24.2705000317398,-184.20230812501475) " font-weight="bold" stroke="#000" xml:space="preserve" text-anchor="start" font-family="Helvetica, Arial, sans-serif" font-size="24" id="svg_64" y="147.006106" x="107.693609" stroke-width="0" fill="#1c8760">s</text>
  <text transform="matrix(1.6004965607074109,0,0,2.2897090414549175,190.3892615138363,-183.20230812501475) " font-weight="bold" stroke="#000" xml:space="preserve" text-anchor="start" font-family="Helvetica, Arial, sans-serif" font-size="24" id="svg_65" y="146.56937" x="104.278313" stroke-width="0" fill="#1c8760">m</text>
  <text transform="matrix(2.0496026683858704,0,0,2.2897090414549175,179.27050003173974,-184.20230812501475) " font-weight="bold" stroke="#000" xml:space="preserve" text-anchor="start" font-family="Helvetica, Arial, sans-serif" font-size="24" id="svg_66" y="147.006106" x="106.71781" stroke-width="0" fill="#1c8760">a</text>
  <text transform="matrix(2.0496026683858704,0,0,2.2897090414549175,217.27050003173974,-183.20230812501475) " font-weight="bold" stroke="#000" xml:space="preserve" text-anchor="start" font-family="Helvetica, Arial, sans-serif" font-size="24" id="svg_67" y="146.56937" x="106.71781" stroke-width="0" fill="#1c8760">k</text>
  <text transform="matrix(2.0496026683858704,0,0,2.2897090414549175,256.2705000317398,-183.20230812501475) " font-weight="bold" stroke="#000" xml:space="preserve" text-anchor="start" font-family="Helvetica, Arial, sans-serif" font-size="24" id="svg_68" y="146.132633" x="107.205709" stroke-width="0" fill="#1c8760">e</text>
  <text transform="matrix(2.0496026683858704,0,0,2.2897090414549175,294.2705000317398,-183.20230812501475) " font-weight="bold" stroke="#000" xml:space="preserve" text-anchor="start" font-family="Helvetica, Arial, sans-serif" font-size="24" id="svg_69" y="146.56937" x="108.669408" stroke-width="0" fill="#1c8760">r</text>
 </g>
</svg>