<?xml version="1.0" ?><!DOCTYPE svg  PUBLIC '-//W3C//DTD SVG 1.1//EN'  'http://www.w3.org/Graphics/SVG/1.1/DTD/svg11.dtd'><svg height="32px" id="Layer_1" style="enable-background:new 0 0 32 32;" version="1.1" viewBox="0 0 32 32" width="32px" xml:space="preserve" xmlns="http://www.w3.org/2000/svg" xmlns:xlink="http://www.w3.org/1999/xlink"><g transform="translate(480 144) " fill="#E2E2E2"><path  d="M-452-128.001c0-0.75-0.078-1.479-0.209-2.188l4.063-2.347l-4-6.93l-4.063,2.348c-1.106-0.944-2.392-1.688-3.791-2.186   v-4.697h-8v4.697c-1.399,0.496-2.685,1.24-3.791,2.186l-4.063-2.348l-4,6.93l4.063,2.349C-475.922-129.478-476-128.75-476-128   c0,0.748,0.078,1.478,0.209,2.189l-4.063,2.348l4,6.93l4.065-2.348c1.106,0.947,2.39,1.688,3.789,2.186v4.697h8v-4.697   c1.399-0.495,2.685-1.236,3.789-2.186l4.065,2.348l4-6.93l-4.063-2.346c0.131-0.712,0.209-1.441,0.209-2.19V-128.001z    M-450.877-122.732l-2,3.465l-3.562-2.056l-1.074,0.92c-0.926,0.796-1.987,1.405-3.155,1.819l-1.332,0.472v4.11h-4v-4.11   l-1.332-0.472c-1.166-0.414-2.228-1.023-3.156-1.819l-1.073-0.92l-3.562,2.056l-2.002-3.465l3.557-2.057l-0.256-1.389   c-0.117-0.64-0.176-1.238-0.176-1.824c0-0.586,0.06-1.184,0.176-1.824l0.256-1.389l-3.557-2.053l2.002-3.467l3.557,2.053   l1.074-0.916c0.935-0.797,1.996-1.408,3.16-1.822l1.332-0.473v-4.109h4v4.109l1.332,0.473c1.164,0.414,2.229,1.025,3.159,1.822   l1.076,0.916l3.556-2.053l2,3.465l-3.556,2.053l0.256,1.387c0.119,0.646,0.177,1.242,0.177,1.828c0,0.585-0.058,1.185-0.177,1.828   l-0.256,1.39L-450.877-122.732z"/><path d="M-464-132.001c2.205,0,4,1.793,4,4c0,2.205-1.795,4-4,4c-2.207,0-4-1.795-4-4C-468-130.208-466.207-132.001-464-132.001z    M-464-134.001c-3.313,0-6,2.688-6,6c0,3.313,2.688,6,6,6s6-2.688,6-6C-458-131.312-460.687-134.001-464-134.001L-464-134.001z"/></g></svg>