<svg width="538" height="121" xmlns="http://www.w3.org/2000/svg">
 <!-- Created with Method Draw - http://github.com/duopixel/Method-Draw/ -->

 <g>
  <title>background</title>
  <rect fill="none" id="canvas_background" height="123" width="540" y="-1" x="-1"/>
  <g display="none" overflow="visible" y="0" x="0" height="100%" width="100%" id="canvasGrid">
   <rect fill="url(#gridpattern)" stroke-width="0" y="0" x="0" height="100%" width="100%"/>
  </g>
 </g>
 <g>
  <title>Layer 1</title>
  <text style="cursor: move;" font-style="normal" font-weight="bold" stroke="#000" transform="matrix(1.0294990475683534,0,0,1.0579947672591208,74.52041394020841,-39.01270075292822) " xml:space="preserve" text-anchor="start" font-family="'Shadows Into Light', serif" font-size="63" id="svg_1" y="114.381308" x="85.000151" stroke-width="0" fill="#dddd94">blues maker</text>
  <g stroke="null" id="svg_14">
   <path stroke="null" id="svg_5" fill="#231f20" d="m48.63607,16.094649c1.093424,-0.152647 2.203764,-0.110634 3.306415,-0.116236c23.784655,0 47.570848,0 71.355503,0c3.730866,-0.09663 7.455581,1.449447 9.805442,4.092063c1.803918,1.978811 2.808146,4.538801 2.798918,7.109994c0.003076,22.500744 0,45.001489 0.001538,67.502233c0.063053,3.249003 -1.52864,6.4812 -4.238362,8.597253c-2.205302,1.760343 -5.124174,2.75325 -8.056887,2.744847c-24.402878,0.0014 -48.805756,0.0014 -73.208634,0c-2.791229,0.009803 -5.568617,-0.885073 -7.733935,-2.488568c-2.857357,-2.079642 -4.592072,-5.367857 -4.569004,-8.700885c-0.003076,-22.504946 0,-45.009891 -0.001538,-67.514837c-0.039985,-2.585198 0.936561,-5.170396 2.73279,-7.174414c1.919258,-2.181873 4.767389,-3.663531 7.807752,-4.05145m-4.346013,5.80059c-1.47789,1.406034 -2.334483,3.33723 -2.32218,5.285231c-0.001538,17.314944 0,34.629888 0,51.944832c0.016917,2.793862 -0.035371,5.590525 0.024606,8.382987c-0.059977,2.391938 -0.007689,4.786677 -0.026144,7.181416c-0.033833,1.723932 0.590541,3.453466 1.754707,4.814686c1.530178,1.827564 3.998455,2.973118 6.525171,2.992724c3.996917,0 7.993834,-0.002801 11.990751,0.0014c0.006151,-2.88489 0.001538,-5.76838 0.001538,-8.65187c0.003076,-8.637866 0.001538,-17.274331 0.001538,-25.912197c-1.574776,-0.036411 -3.241824,0.176454 -4.707412,-0.474747c-0.891963,-0.365513 -1.765472,-1.090937 -1.751631,-2.047432c-0.001538,-15.301122 0.001538,-30.603645 -0.001538,-45.904768c-1.843903,0.0014 -3.689344,-0.0014 -5.533246,0.0014c-2.231445,0.019606 -4.425982,0.911681 -5.95616,2.386336m27.178728,-2.387737c-0.004614,15.301122 0.001538,30.603645 -0.003076,45.904768c0.016917,0.994307 -0.919645,1.728133 -1.846979,2.088044c-1.299498,0.55037 -2.758934,0.42013 -4.149166,0.434134c0,8.637866 -0.001538,17.274331 0.001538,25.912197c-0.001538,2.88349 -0.004614,5.76698 0.001538,8.65047c5.51633,-0.011203 11.035736,0.021006 16.552065,-0.016805c1.184158,0.03361 2.369853,-0.011203 3.554011,-0.026608l0.044598,-0.09663c-0.019992,-2.835875 0,-5.673151 -0.009227,-8.510427c0.003076,-8.636465 0.001538,-17.274331 0.001538,-25.912197c-1.539405,-0.037812 -3.163393,0.170853 -4.608988,-0.434134c-0.927334,-0.358511 -1.857744,-1.089536 -1.850054,-2.079642c-0.001538,-15.305324 0.003076,-30.609247 -0.001538,-45.91317c-2.562087,0 -5.124174,0 -7.686261,0m23.375583,0c-0.004614,15.301122 0.001538,30.603645 -0.003076,45.904768c0.023068,0.838859 -0.676662,1.520869 -1.437906,1.901787c-1.377929,0.739428 -3.023447,0.618991 -4.558239,0.620391c0,8.637866 -0.001538,17.275732 0.001538,25.912197c0,2.880689 -0.007689,5.762779 0.003076,8.643468c1.127257,0.0014 2.259127,0.049015 3.380232,-0.075623c1.018068,0.13024 2.048439,0.067221 3.074197,0.082626c4.612064,0.0014 9.224128,-0.002801 13.836192,0.0014c0.009227,-2.88349 0.003076,-5.76838 0.003076,-8.65187c0.003076,-8.637866 0.001538,-17.274331 0.001538,-25.912197c-1.436368,-0.022407 -2.945016,0.134441 -4.29065,-0.429933c-0.931948,-0.358511 -1.871584,-1.092337 -1.860819,-2.088044c-0.001538,-15.303923 0.003076,-30.606446 -0.001538,-45.908969c-2.715874,0.0014 -5.431747,0 -8.147621,0m23.836943,0c-0.003076,15.070051 0,30.140102 -0.001538,45.210153c-0.013841,0.491552 0.070742,1.019515 -0.193771,1.471854c-0.413686,0.760435 -1.274892,1.215575 -2.128408,1.476056c-1.282581,0.394922 -2.654359,0.235273 -3.983076,0.268883c0,8.637866 -0.001538,17.274331 0.001538,25.912197c-0.001538,2.88349 -0.004614,5.76698 0,8.65047c3.846206,-0.002801 7.692412,0.004201 11.538618,-0.004201c3.401762,-0.067221 6.580534,-2.230889 7.655503,-5.164794c0.628988,-1.520869 0.432141,-3.163576 0.46136,-4.751667c-0.016917,-1.690322 0.033833,-3.380643 -0.024606,-5.069565c0.059977,-3.676135 0.007689,-7.359271 0.024606,-11.038207c0,-15.775869 0,-31.551738 0,-47.327607c-0.018454,-1.446646 0.130719,-2.938107 -0.412148,-4.330136c-1.014992,-2.952111 -4.150704,-5.164794 -7.54939,-5.293634c-1.796229,-0.022407 -3.592458,-0.002801 -5.388687,-0.009803z"/>
   <path stroke="null" id="svg_6" fill="#ffffff" d="m44.290057,21.895239c1.530178,-1.474655 3.724715,-2.36673 5.95616,-2.386336c1.843903,-0.002801 3.689344,0 5.533246,-0.0014c0.003076,15.301122 0,30.603645 0.001538,45.904768c-0.013841,0.956495 0.859668,1.681919 1.751631,2.047432c1.465588,0.651201 3.132636,0.438335 4.707412,0.474747c0,8.637866 0.001538,17.274331 -0.001538,25.912197c-2.562087,-0.009803 -5.124174,-0.0014 -7.687798,-0.004201c-1.231832,-0.008403 -2.474428,0.047615 -3.693957,-0.141444c-2.918872,-0.413128 -5.67473,-1.840168 -7.458656,-3.996834c-0.5767,-0.670807 -0.991924,-1.436843 -1.405611,-2.195878c-0.059977,-2.792462 -0.007689,-5.589125 -0.024606,-8.382987c0,-17.314944 -0.001538,-34.629888 0,-51.944832c-0.012303,-1.948001 0.844289,-3.879197 2.32218,-5.285231z"/>
   <path stroke="null" id="svg_7" fill="#ffffff" d="m71.468785,19.507502c2.562087,0 5.124174,0 7.686261,0c0.004614,15.303923 0,30.607846 0.001538,45.91317c-0.007689,0.990106 0.92272,1.721131 1.850054,2.079642c1.445595,0.604987 3.069583,0.396322 4.608988,0.434134c0,8.637866 0.001538,17.275732 -0.001538,25.912197c-6.714329,-0.008403 -13.428657,-0.007002 -20.142986,0c-0.003076,-8.637866 -0.001538,-17.274331 -0.001538,-25.912197c1.390232,-0.014004 2.849668,0.116236 4.149166,-0.434134c0.927334,-0.359911 1.863895,-1.093738 1.846979,-2.088044c0.004614,-15.301122 -0.001538,-30.603645 0.003076,-45.904768z"/>
   <path stroke="null" id="svg_8" fill="#ffffff" d="m94.844368,19.507502c2.715874,0 5.431747,0.0014 8.147621,0c0.004614,15.302523 0,30.605046 0.001538,45.908969c-0.010765,0.995707 0.928872,1.729534 1.860819,2.088044c1.345634,0.564374 2.854282,0.407526 4.29065,0.429933c0,8.637866 0.001538,17.274331 -0.001538,25.912197c-6.765078,-0.005602 -13.531694,-0.008403 -20.296772,0c-0.003076,-8.636465 -0.001538,-17.274331 -0.001538,-25.912197c1.534792,-0.0014 3.18031,0.119037 4.558239,-0.620391c0.761244,-0.380918 1.460974,-1.062928 1.437906,-1.901787c0.004614,-15.301122 -0.001538,-30.603645 0.003076,-45.904768z"/>
   <path stroke="null" id="svg_9" fill="#ffffff" d="m118.68131,19.507502c1.796229,0.007002 3.592458,-0.012604 5.388687,0.009803c3.398687,0.12884 6.534398,2.341523 7.54939,5.293634c0.542867,1.39203 0.393694,2.88349 0.412148,4.330136c0,15.775869 0,31.551738 0,47.327607c-0.016917,3.678935 0.035371,7.362072 -0.024606,11.038207c-0.864281,1.78135 -2.229908,3.366639 -4.015371,4.451974c-1.582465,0.984504 -3.434058,1.599294 -5.334862,1.803757c-0.962705,0.107833 -1.933099,0.075623 -2.900418,0.079825c-2.460588,0.002801 -4.919637,-0.005602 -7.380225,0.004201c-0.003076,-8.637866 -0.001538,-17.274331 -0.001538,-25.912197c1.328717,-0.03361 2.700495,0.126039 3.983076,-0.268883c0.853516,-0.26048 1.714722,-0.715621 2.128408,-1.476056c0.264513,-0.45234 0.17993,-0.980303 0.193771,-1.471854c0.001538,-15.070051 -0.001538,-30.140102 0.001538,-45.210153z"/>
   <path stroke="null" id="svg_10" fill="#bcbdbf" d="m41.992483,87.508289c0.413686,0.759034 0.82891,1.525071 1.405611,2.195878c1.783926,2.156666 4.539784,3.583706 7.458656,3.996834c1.219529,0.189058 2.462125,0.133041 3.693957,0.141444c2.563625,0.002801 5.125712,-0.005602 7.687798,0.004201c0,2.88349 0.004614,5.76698 -0.001538,8.65187c-3.996917,-0.004201 -7.993834,-0.0014 -11.990751,-0.0014c-2.526716,-0.019606 -4.994993,-1.16516 -6.525171,-2.992724c-1.164166,-1.36122 -1.78854,-3.090754 -1.754707,-4.814686c0.018454,-2.394739 -0.033833,-4.789478 0.026144,-7.181416z"/>
   <path stroke="null" id="svg_11" fill="#bcbdbf" d="m127.991559,91.958863c1.785464,-1.085335 3.15109,-2.670624 4.015371,-4.451974c0.058439,1.688921 0.007689,3.379243 0.024606,5.069565c-0.029219,1.58809 0.167628,3.230797 -0.46136,4.751667c-1.074969,2.933905 -4.253741,5.097573 -7.655503,5.164794c-3.846206,0.008403 -7.692412,0.0014 -11.538618,0.004201c-0.004614,-2.88349 -0.001538,-5.76698 0,-8.65047c2.460588,-0.009803 4.919637,-0.0014 7.380225,-0.004201c0.967319,-0.004201 1.937713,0.028009 2.900418,-0.079825c1.900804,-0.204463 3.752396,-0.819253 5.334862,-1.803757z"/>
   <path stroke="null" id="svg_12" fill="#bcbdbf" d="m65.471103,93.846646c6.714329,-0.007002 13.428657,-0.008403 20.142986,0c0.009227,2.837276 -0.010765,5.674551 0.009227,8.510427c-0.632063,-0.0014 -1.265665,-0.011203 -1.89619,-0.060219c-0.579776,-0.063019 -1.13187,0.142844 -1.702419,0.183457c-5.51633,0.037812 -11.035736,0.005602 -16.552065,0.016805c-0.006151,-2.88349 -0.003076,-5.76698 -0.001538,-8.65047z"/>
   <path stroke="null" id="svg_13" fill="#bcbdbf" d="m88.846685,93.846646c6.765078,-0.008403 13.531694,-0.005602 20.296772,0c0,2.88349 0.006151,5.76838 -0.003076,8.65187c-4.612064,-0.004201 -9.224128,0 -13.836192,-0.0014c-1.025757,-0.015405 -2.056129,0.047615 -3.074197,-0.082626c-1.121105,0.124638 -2.252976,0.077024 -3.380232,0.075623c-0.010765,-2.880689 -0.003076,-5.762779 -0.003076,-8.643468z"/>
  </g>
 </g>
</svg>