<?xml version="1.0" ?><!DOCTYPE svg  PUBLIC '-//W3C//DTD SVG 1.1//EN'  'http://www.w3.org/Graphics/SVG/1.1/DTD/svg11.dtd'><svg enable-background="new 0 0 48 50" height="50px" id="Layer_1" version="1.1" viewBox="0 0 48 50" width="48px" xml:space="preserve" xmlns="http://www.w3.org/2000/svg" xmlns:xlink="http://www.w3.org/1999/xlink"><path d="M39.964,18.432c-0.192-0.476-0.284-0.938-0.517-1.392l4.238-7.648l-1.838-1.87l-1.387-1.401L38.6,4.252  l-8.193,4.727c-0.048-0.019-0.096-0.026-0.144-0.029L27.635,0h-2.644H24h-0.991h-2.644l-2.628,8.95  c-0.048,0.002-0.096,0.01-0.144,0.029L9.4,4.252l-1.861,1.87L6.152,7.523l-1.838,1.87l4.238,7.648  c-0.232,0.454-0.324,0.916-0.517,1.392L0,20.865v2.644v1.982v2.644l7.626,2.314c0.224,0.682,0.245,1.342,0.547,1.984l-3.921,7.184  l1.87,1.877l1.401,1.417l1.869,1.901l7.181-3.859c0.462,0.218,0.936,0.539,1.419,0.716L20.365,50h2.644H24h0.991h2.644l2.373-8.331  c0.483-0.177,0.957-0.498,1.419-0.716l7.181,3.859l1.869-1.901l1.401-1.417l1.87-1.877l-3.921-7.184  c0.302-0.643,0.323-1.303,0.547-1.984L48,28.135v-2.644v-1.982v-2.644L39.964,18.432z M24,33.475c-4.736-0.261-8.5-4.174-8.5-8.975  c0-4.801,3.764-8.714,8.5-8.975c4.736,0.261,8.5,4.173,8.5,8.975C32.5,29.301,28.736,33.214,24,33.475z" fill="#DCDCDC"/></svg>